<?xml version="1.0" encoding="utf-8"?>
<!-- Generator: Adobe Illustrator 21.1.0, SVG Export Plug-In . SVG Version: 6.00 Build 0)  -->
<svg version="1.1" id="Capa_1" xmlns="http://www.w3.org/2000/svg" xmlns:xlink="http://www.w3.org/1999/xlink" x="0px" y="0px"
	 viewBox="0 0 2500 490" style="enable-background:new 0 0 2500 490;" xml:space="preserve">
<style type="text/css">
	.st0{fill:#FFFFFF;}
	.st1{fill:#666666;}
	.st2{fill:url(#SVGID_1_);}
	.st3{fill:url(#SVGID_2_);}
	.st4{fill:url(#SVGID_3_);}
	.st5{fill:#00A54D;}
	.st6{fill:url(#SVGID_4_);}
	.st7{fill:#02A74D;}
	.st8{fill:url(#SVGID_5_);}
	.st9{fill:url(#SVGID_6_);}
	.st10{fill:url(#SVGID_7_);}
</style>
<path class="st0" d="M2212.7,88.3v250L2028.6,88.2l-30.2,0v304.4h33.8V148l180.4,244.7l33.9,0V88.3H2212.7z M1822.4,81.3
	c-85.6,0-145.4,65.5-145.4,159.2c0,93.9,59.8,159.3,145.4,159.3c85.5,0,145.1-65.4,145.1-159.3
	C1967.5,146.7,1907.9,81.3,1822.4,81.3 M1822.4,367.5c-65.2,0-110.9-52.3-110.9-127.1c0-74.7,45.7-127,110.9-127
	c65.1,0,110.5,52.3,110.5,127C1932.9,315.2,1887.5,367.5,1822.4,367.5 M2318.9,362.9V250.3h167.5v-29.8h-167.5V117.9h178.9V88.1
	h-213.1v304.6h215.2v-29.8H2318.9z"/>
<path class="st0" d="M1581.6,393l-97.3-132.1L1387,393H1347l117-159.6l-106.9-145h40.1l87.1,118.3l87-118.3h40l-106.8,145l117,159.6
	H1581.6z M1045.9,244.9c-6-5.1-12.8-9.4-19.9-12.7c22.1-12,36.6-34.7,36.6-61c0-19.5-7.2-82.9-99-82.9H839.9v131.3h-41.2
	c-7.6,10-15,20.2-22.1,30.6h63.3v142.7l123.7,0c67,0,108.6-34,108.6-88.9C1072.2,280.1,1063.1,259.7,1045.9,244.9 M874.1,120.1h89.5
	c24.2,0,64.8,6,64.8,48.4c0,32-23.6,51.1-64.8,51.1h-89.5V120.1L874.1,120.1z M963.5,361.2H874V250.3h89.5
	c33.9,0,74.5,9.4,74.5,53.1C1038.1,353.7,991.4,361.2,963.5,361.2"/>
<path class="st0" d="M1233.1,81.3c-85.6,0-145.4,65.5-145.4,159.2c0,93.9,59.8,159.3,145.4,159.3c85.5,0,145.1-65.4,145.1-159.3
	C1378.2,146.8,1318.6,81.3,1233.1,81.3 M1233.1,367.5c-65.2,0-110.8-52.3-110.8-127c0-74.7,45.7-127,110.8-127
	c65.1,0,110.5,52.2,110.5,127C1343.6,315.3,1298.2,367.5,1233.1,367.5 M823.2,392.9L706.1,233.4L813,88.3h-40l-87.1,118.3l-87-118.3
	h-39.9l106.8,145L548.6,392.9h40.1l97.2-132.1l97.3,132.1L823.2,392.9z"/>
<g transform="translate(-3.408 36.558)">
	<path class="st1" d="M499.1,208.4c0,135.3-111,245-247.8,245S3.5,343.8,3.5,208.4c0-135.3,111-245,247.8-245
		S499.1,73.1,499.1,208.4L499.1,208.4z"/>
	
		<radialGradient id="SVGID_1_" cx="-1002.3033" cy="-288.0484" r="14.351" gradientTransform="matrix(0 24.8768 -22.0902 0 -6116.1597 25116.2773)" gradientUnits="userSpaceOnUse">
		<stop  offset="0" style="stop-color:#FFFFFF"/>
		<stop  offset="1" style="stop-color:#FFFFFF;stop-opacity:0"/>
	</radialGradient>
	<path class="st2" d="M499.1,208.4c0,135.3-111,245-247.8,245S3.5,343.8,3.5,208.4c0-135.3,111-245,247.8-245
		S499.1,73.1,499.1,208.4L499.1,208.4z"/>
	
		<radialGradient id="SVGID_2_" cx="-1002.3033" cy="-288.0484" r="14.351" gradientTransform="matrix(0 24.8768 -22.0902 0 -6116.1597 25116.2773)" gradientUnits="userSpaceOnUse">
		<stop  offset="0" style="stop-color:#FFFFFF"/>
		<stop  offset="1" style="stop-color:#FFFFFF;stop-opacity:0"/>
	</radialGradient>
	<path class="st3" d="M499.1,208.4c0,135.3-111,245-247.8,245S3.5,343.8,3.5,208.4c0-135.3,111-245,247.8-245
		S499.1,73.1,499.1,208.4L499.1,208.4z"/>
	
		<radialGradient id="SVGID_3_" cx="-1002.3033" cy="-288.0484" r="14.351" gradientTransform="matrix(0 24.8768 -22.0902 0 -6116.1597 25116.2773)" gradientUnits="userSpaceOnUse">
		<stop  offset="0" style="stop-color:#FFFFFF"/>
		<stop  offset="1" style="stop-color:#FFFFFF;stop-opacity:0"/>
	</radialGradient>
	<path class="st4" d="M499.1,208.4c0,135.3-111,245-247.8,245S3.5,343.8,3.5,208.4c0-135.3,111-245,247.8-245
		S499.1,73.1,499.1,208.4L499.1,208.4z"/>
	<path class="st5" d="M188.5,101.1c-27.4,33.2-142,168-131.8,259.1c7.1,9,14.9,17.4,23.1,25.3c-1.2-69.8,80.7-144.4,144.6-200.8
		L188.5,101.1L188.5,101.1z"/>
	<g transform="matrix(1.0075 0 0 1.00084 1.107 -34.878)">
		
			<linearGradient id="SVGID_4_" gradientUnits="userSpaceOnUse" x1="-878.1255" y1="275.0487" x2="-882.0815" y2="270.4087" gradientTransform="matrix(14.9107 0 0 14.7137 13253.3701 -3735.623)">
			<stop  offset="0" style="stop-color:#97CA43"/>
			<stop  offset="1" style="stop-color:#97CA43;stop-opacity:0"/>
		</linearGradient>
		<path class="st6" d="M185.9,135.9C158.8,169,45,303.7,55.1,394.8c7,9,14.8,17.3,22.9,25.2c-1.2-69.7,80.1-144.3,143.5-200.6
			L185.9,135.9z"/>
	</g>
	<g transform="matrix(1.0075 0 0 1.00084 .968 -34.846)">
		<path class="st7" d="M119.3,34.9C105.2,43.5,92,53.5,79.8,64.7c39,7.5,78.1,42,99.6,70.7c18.7,29.4,28.8,56.4,42,84.2
			c9.2-7.9,18.5-15.7,27.9-23.3l-0.1-120.8c-29.1-18.2-77.1-42.1-129.5-40.6C119.7,35,119.4,34.8,119.3,34.9L119.3,34.9z"/>
		
			<linearGradient id="SVGID_5_" gradientUnits="userSpaceOnUse" x1="-877.934" y1="263.9049" x2="-874.31" y2="255.862" gradientTransform="matrix(14.9107 0 0 14.7137 13247.3818 -3735.1848)">
			<stop  offset="0" style="stop-color:#97CA43"/>
			<stop  offset="1" style="stop-color:#97CA43;stop-opacity:0"/>
		</linearGradient>
		<path class="st8" d="M119.3,34.9C105.2,43.5,92,53.5,79.8,64.7c39,7.5,78.1,42,99.6,70.7c18.7,29.4,28.8,56.4,42,84.2
			c9.2-7.9,18.5-15.7,27.9-23.3l-0.1-120.8c-29.1-18.2-77.1-42.1-129.5-40.6C119.7,35,119.4,34.8,119.3,34.9L119.3,34.9z"/>
	</g>
	<g>
		<path class="st5" d="M314.3,101.2c27.3,33.2,141.5,168.1,131.4,259.3c-7.1,9-14.8,17.4-23,25.3c1.2-69.8-80.4-144.6-144.1-201
			L314.3,101.2L314.3,101.2z"/>
		<g transform="matrix(-1.00417 0 0 1.00169 61.912 -34.88)">
			
				<linearGradient id="SVGID_6_" gradientUnits="userSpaceOnUse" x1="-1817.4174" y1="273.632" x2="-1821.3723" y2="268.992" gradientTransform="matrix(14.8128 0 0 14.7394 26610.6582 -3749.2942)">
				<stop  offset="0" style="stop-color:#97CA43"/>
				<stop  offset="1" style="stop-color:#97CA43;stop-opacity:0"/>
			</linearGradient>
			<path class="st9" d="M-251.3,135.9c-27.1,33.1-140.9,167.8-130.8,258.9c7.1,8.9,14.7,17.4,22.9,25.3
				c-1.2-69.7,80.1-144.3,143.5-200.6L-251.3,135.9z"/>
		</g>
		<g transform="matrix(-1.00417 0 0 1.00169 62.051 -34.848)">
			<path class="st7" d="M-317.9,34.9c-14.1,8.6-27.3,18.6-39.5,29.8c39,7.5,78.2,42,99.6,70.7c18.7,29.4,28.9,56.4,42,84.2
				c8.9-7.6,18-15.4,27.9-23.3L-188,75.4c-29.1-18.2-77.1-42.1-129.5-40.6C-317.6,34.9-317.8,34.8-317.9,34.9L-317.9,34.9z"/>
			
				<linearGradient id="SVGID_7_" gradientUnits="userSpaceOnUse" x1="-1812.729" y1="262.3915" x2="-1809.6329" y2="257.3484" gradientTransform="matrix(14.8128 0 0 14.7394 26608.752 -3748.8413)">
				<stop  offset="0" style="stop-color:#97CA43"/>
				<stop  offset="1" style="stop-color:#97CA43;stop-opacity:0"/>
			</linearGradient>
			<path class="st10" d="M-317.9,34.9c-14.1,8.6-27.3,18.6-39.5,29.8c39,7.5,78.2,42,99.6,70.7c18.7,29.4,28.9,56.4,42,84.2
				c8.9-7.6,18-15.4,27.9-23.3L-188,75.4c-29.1-18.2-77.1-42.1-129.5-40.6C-317.6,34.9-317.8,34.8-317.9,34.9L-317.9,34.9z"/>
		</g>
	</g>
</g>
</svg>
